<svg xmlns="http://www.w3.org/2000/svg" viewBox="0 0 1400.89 529.55"><defs><style>.cls-1{fill:none;}.cls-1,.cls-2{stroke:#111;stroke-linecap:round;stroke-linejoin:round;stroke-width:6px;}.cls-2{fill:#fff;}.cls-3{fill:#6d6d6d;}</style></defs><g id="Layer_2" data-name="Layer 2"><g id="outline_III" data-name="outline III"><g id="contact_us" data-name="contact us"><g id="mail"><path class="cls-1" d="M675.29,167.43h351.64a17.78,17.78,0,0,1,17.78,17.78V480.53"/><path class="cls-1" d="M471.56,262.48V185.21a17.79,17.79,0,0,1,17.79-17.78h107"/><path class="cls-1" d="M654,307.7l93.67,72.85a16.86,16.86,0,0,0,21,0l269.21-209.38"/><line class="cls-1" x1="478.45" y1="171.17" x2="563.72" y2="237.49"/><line class="cls-2" x1="875.77" y1="298.6" x2="1043.16" y2="461.39"/></g><g id="headset"><g id="soft_parts" data-name="soft parts"><path id="soft_inside" data-name="soft inside" class="cls-1" d="M386,276.12c-4.93-15.69-20.84-80.92,25.69-156.29,39.08-63.31,100.17-64.32,152-45"/><g id="soft_part_II" data-name="soft part II"><path class="cls-1" d="M335,284.12q4.33-1.74,9.16-3.32c45.84-15,90.61,14.5,93.26,24.3"/><path id="line" class="cls-1" d="M417,353.17c-6-13-29.77-40.34-51.11-21.19-22.63,20.28-6,102.55,40.6,94.33"/></g><path id="soft_part" data-name="soft part" class="cls-1" d="M575.34,241.41c-22.65-5.85-47.21-8.29-64.41-1.58-31.25,12.2-89.15,42.22-103,171-3.7,34.25,4.42,58,18.31,74.28"/></g><path id="shape" class="cls-1" d="M338.18,479.74c-19.33-17.66-31.57-39.44-34.29-54.19-5.93-32.32-10-80.15-10-80.15-2.27-21.58,7.36-44.43,39.52-60.7,0,0-20.27-104.46,24.26-173.6,49.9-77.49,101.2-79.7,101.2-79.7C508.72,24,542.92,42.35,565,74.48"/><path id="shape-2" data-name="shape" class="cls-1" d="M577.62,496c23,3,53.27-20.16,71.89-56.89,19.51-38.49,19.44-78.46.93-93.86,1.2-11.37.8-28.56,3.87-51.64q1.17-8.07,2.55-15.89c1.91-10.12,6.39-32.95,6.39-32.95,5.89-28.93,11.37-56,10.25-83.54-2.29-56.61-38.27-106.77-77.68-127.65C510.32-11.76,455,6.73,455,6.73,271.68,68.77,300.48,270,304.44,290.87c-36.8,17.87-48,43.37-45.23,78,1.57,13.9.64,67.52,18.65,105.31"/><path id="shape-3" data-name="shape" class="cls-1" d="M565,74.48c23.44,34.08,32.86,79,31.65,110.3-2.11,54.68-32.8,67.68-39,69.77a40.08,40.08,0,0,0-22.5,4c-22.48,4-59.2,53.95-81,104,0,.14.08.29.11.44l-.53.52c-10.21,23.64-17.41,65.88-17.41,65.89a58,58,0,0,0,16.4,55.25"/><g id="microphone"><path class="cls-1" d="M549.94,525.55c24-9.48,27.68-29.58,27.68-29.58s13.48-42.69-21.86-36.36C547.48,471,532.43,477.68,516,481.48c-86.75,8.87-210.11,1.8-342.27-21.87l-1,2.81a25.57,25.57,0,0,0-18.56-16.54L111,436.21a25.58,25.58,0,0,0-30.56,19.38L80,457.73a25.58,25.58,0,0,0,19.37,30.56L142.53,498A25.48,25.48,0,0,0,162,494.5l-.54,1.6s62.5,18.77,165.84,27.8"/><path id="line-2" data-name="line" class="cls-1" d="M650.44,345.22s-60.17-26-94.68,114.39"/></g></g><g id="pen"><path class="cls-3" d="M1230.72,505.09l-46.67,19-502.34-1.33c-4.35,0-7.86-5.28-7.84-11.76l.06-20.66c0-6.48,3.55-11.72,7.89-11.71L1184.17,480l46.57,19.24C1232.75,500,1232.74,504.27,1230.72,505.09Z"/><polyline class="cls-1" points="691.64 526.55 691.79 462.03 815.32 464.57"/><line class="cls-1" x1="866.68" y1="499.93" x2="753.48" y2="499.93"/></g><line id="line-3" data-name="line" class="cls-2" x1="3" y1="525.55" x2="1397.89" y2="525.55"/></g></g></g></svg>