<svg xmlns="http://www.w3.org/2000/svg" viewBox="0 0 1378.26 872.6"><defs><style>.cls-1,.cls-4,.cls-6,.cls-7{fill:none;}.cls-1,.cls-5,.cls-6,.cls-7{stroke:#111;}.cls-1,.cls-4,.cls-5,.cls-6{stroke-linecap:round;}.cls-1,.cls-4,.cls-5,.cls-6,.cls-7{stroke-linejoin:round;stroke-width:6px;}.cls-2{fill:#111;}.cls-3{fill:#6d6d6d;}.cls-4{stroke:#6d6d6d;}.cls-5{fill:#fff;}.cls-6{stroke-dasharray:15.94 15.94;}</style></defs><g id="Layer_2" data-name="Layer 2"><g id="outline_III" data-name="outline III"><line id="hand_II" data-name="hand II" class="cls-1" x1="734.32" y1="552.35" x2="775.1" y2="752.88"/><g id="chair"><path class="cls-1" d="M624.2,454.91l-1-12.35c-2.29-28.07-8.14-58.67-20.3-87.79"/><path class="cls-1" d="M343.24,226.65c-209.52-9.43-239.57,118.49-231.63,215.91l34.62,424.32"/></g><g id="shirt"><path class="cls-2" d="M707,820.19a1.37,1.37,0,0,1-2,0l-10.3-10.9-3.79-9.2c-4.3.57-9.93-.14-14.16-4h0l-2.1-2.2c5.82,7.5,6,16.43-14.19,7.4,0,0-33.87-10.11-34.6-10.2,0,0-123.33,13.63-254.53-1.2l4.93,78.77,341.06,1.05ZM579.85,861H566.19a7.7,7.7,0,1,1,0-15.39h13.66a7.7,7.7,0,1,1,0,15.39Zm0-36.86H566.19a7.7,7.7,0,1,1,0-15.4h13.66a7.7,7.7,0,1,1,0,15.4Z"/><path class="cls-2" d="M580.08,430.94c3.26,4.69,40,62.46-40.94,69.51-52.78,4.6-111-26.37-142.29-63.08,0,0-3-2.27-3.2-2.27-21.58,4.79-42.55,10.37-51.17,15.46-10,5.92-57.41,34.56-74.88,111.34-.07.07,2.89.83,3,.91-.06-.19,128.74,38.65,128.74,38.65l-10.61,94.1s143.86,19.11,217.45,26.05l0,0,.78.1c11.61,0,24,3.24,34.19,6.86a166.16,166.16,0,0,1,22.63,5.64l-31.56-76.41,13.17-5.41,37.21,90.1c3,1.72,6.19,3.55,9.35,5.42l-12.61-60.41s21.79-27.22,20.11-65.58q-.17-3.79-.65-7.71c.21-.52,46-15.42,48.57-20.91C745.6,562,720.16,479,675.34,459.68,661,453,626.66,440.74,619.65,438.35c-10-3.42-24.25-6.89-39.76-10.55"/></g><g id="head"><g id="hair"><rect class="cls-3" x="415.74" y="70.62" width="24.29" height="42.77" transform="translate(854.7 -4.86) rotate(155.08)"/><circle class="cls-2" cx="402.2" cy="42.79" r="42.78"/><path id="hair-2" data-name="hair" class="cls-2" d="M551,80.64C514,67.47,474.34,74,438.13,86.87,321.92,130,315.81,297.88,304.34,349.06c-1.84,8.19,5,16.48,13.6,16.45l137.22,18.37,6.54-61.44s-4.79-11.85-8.66-21.55l.19,6.45s-49.13,7.12-51.35-38.6C400.49,240.19,423.52,236,441,236.83c-.14-3-.19-4.74-.18-4.7s0,0,0,0c63.64-2.37,136.49-43.32,154.25-78.21,21.15,12.58,32.13,34.11,36.73,91.52h0C672.92,207.37,663.73,126.4,551,80.64Z"/></g><path id="ear" class="cls-1" d="M453.23,307.34s-49.13,7.12-51.35-38.6c-1.69-34.68,32.64-33.46,49.32-30.85"/><path id="face" class="cls-1" d="M631.83,245.42h0c-4.6-57.41-15.25-76.77-36.41-89.35-17.48,34.34-82,74.31-153,76-1.37,8-.32.86-.46,9.59.44,9,1.07,19.26,1.92,27.86,5.48,32.53,17.82,52.88,17.82,52.88v0c17.47,31.69,46.12,55.7,84.25,59.16,66.55,6,84.39-87.74,85.91-108.55.75-10.32,0-27.69,0-27.69Z"/><polyline id="nose" class="cls-1" points="575.3 297.26 594.52 297.27 581.39 221.49"/><path id="brow_II" data-name="brow II" class="cls-1" d="M526,223.08s12-15.51,25.19-6.86"/><path id="mouth" class="cls-1" d="M566.77,331.21s-19,5.05-24.19-9.8"/><path id="brow" class="cls-1" d="M604.16,220.78s16.73-10.25,26,2.49"/><ellipse id="eye_II" data-name="eye II" class="cls-2" cx="548.42" cy="260.14" rx="9.86" ry="6.37" transform="translate(269.47 799.23) rotate(-88.02)"/><ellipse id="eye" class="cls-2" cx="616.14" cy="262.09" rx="9.86" ry="6.37" transform="translate(332.9 868.8) rotate(-88.02)"/><g id="glasses"><ellipse id="elipse" class="cls-4" cx="531.5" cy="241.93" rx="53.33" ry="40.45" transform="translate(273.49 765.81) rotate(-88.25)"/><ellipse id="elipse-2" data-name="elipse" class="cls-4" cx="638.84" cy="249.02" rx="53.33" ry="40.45" transform="translate(370.46 879.97) rotate(-88.25)"/><line id="line" class="cls-4" x1="597.14" y1="239.94" x2="571.75" y2="240.02"/><line id="line-2" data-name="line" class="cls-4" x1="491.51" y1="231.34" x2="437.07" y2="237.17"/></g></g><g id="hand"><path id="finger" class="cls-1" d="M632.84,725.7c14.43,2.13,34.34,8,48.89,16.29,16.83,9.54,38.66,22.66,39.78,28.44,1.54,7.86-12.1,4.32-21.27,1.28"/><polyline id="pencil" class="cls-3" points="690.22 760.9 644.51 650.2 631.34 655.61 666.94 741.82"/><path class="cls-1" d="M716.88,790.45c-1.09-4.87-42.54-47-57.67-54.36-9.8-4.75-32.14-14.36-52.28-14.41l-.78-.1,0,0c-73.59-6.94-217.45-26.05-217.45-26.05l10.61-94.1s-128.8-38.84-128.74-38.65c-9.9,72.58-7.86,153.28.79,182.34,5.24,17.58,24.57,33,42.61,36.31,150.09,27.49,311.91,9.6,311.91,9.6.73.1,34.6,10.21,34.6,10.21,20.85,9.35,20-.55,13.56-8.18a26.81,26.81,0,0,1,2.73,3c7.22,6.61,18.53,4,20.3,1.55s-6.19-9.66-16.7-21.09l1.26.93C699.05,797.51,719.79,803.41,716.88,790.45Z"/><path class="cls-5" d="M676.8,796.06C667.49,784,641,776,641,776c3,.29,21.2,6.43,30.06,14"/><path class="cls-5" d="M652.23,760.63s17.3,4,27.92,15.62"/></g><g id="computer"><path id="graphic_tablet" data-name="graphic tablet" class="cls-3" d="M752.23,803.74H485.06a11,11,0,0,0-11,11v8a11,11,0,0,0,11,11H752.23a11,11,0,0,0,11-11v-8A11,11,0,0,0,752.23,803.74Z"/><path class="cls-2" d="M817.19,512.49c-6,0-11.12,4.49-12.49,10.86L739,828.69H456S448.23,869,493.77,869c18.92,0,144.06-.09,283.91-.19-4.08-5.88-6.11-14.52-4.76-20.79l69.85-322.33c1.67-7.79,8-13.23,15.42-13.23ZM587.55,853.29a7.69,7.69,0,0,1-7.7,7.7H566.19a7.7,7.7,0,0,1-7.7-7.7h0a7.69,7.69,0,0,1,7.7-7.69h13.66a7.69,7.69,0,0,1,7.7,7.69Z"/><path id="cabel" class="cls-1" d="M570.87,816.46s-33.68-5.39-34.28,18.22h0v.65h0c.6,23.61,34.28,18.22,34.28,18.22"/></g><g id="layout"><rect class="cls-3" x="909.9" y="247.89" width="79.8" height="78.44" transform="matrix(1, 0.07, -0.07, 1, 21.05, -62.14)"/><rect class="cls-1" x="959.6" y="293.11" width="18.61" height="18.61" transform="translate(22.1 -63.37) rotate(3.79)"/><line class="cls-1" x1="978.8" y1="293.8" x2="959.03" y2="311.09"/><rect class="cls-1" x="921.31" y="260.64" width="58.9" height="17.75" transform="matrix(1, 0.07, -0.07, 1, 19.89, -62.25)"/><line class="cls-1" x1="918.65" y1="308.94" x2="948.54" y2="310.92"/><line class="cls-1" x1="919.26" y1="299.68" x2="949.15" y2="301.66"/><line class="cls-1" x1="919.86" y1="290.42" x2="949.76" y2="292.4"/><line class="cls-1" x1="920.78" y1="276.42" x2="980.73" y2="262.6"/></g><g id="button"><rect class="cls-1" x="1010.14" y="162.42" width="102.75" height="33.48" rx="15.83" transform="translate(109.33 -323.09) rotate(18.23)"/><circle class="cls-2" cx="1093.03" cy="188.82" r="25.91"/></g><g id="square"><rect class="cls-3" x="1050.1" y="283.45" width="158.43" height="158.43" transform="translate(1035.01 -819.7) rotate(67.64)"/><polyline class="cls-1" points="1142.76 468.67 1137.88 474.37 1132.18 469.48"/><line class="cls-6" x1="1120.09" y1="459.11" x2="1029.36" y2="381.29"/><polyline class="cls-1" points="1023.31 376.11 1017.62 371.22 1022.5 365.53"/><line class="cls-6" x1="1032.87" y1="353.43" x2="1110.69" y2="262.7"/><polyline class="cls-1" points="1115.88 256.66 1120.76 250.96 1126.45 255.84"/><line class="cls-6" x1="1138.55" y1="266.22" x2="1229.28" y2="344.03"/><polyline class="cls-1" points="1235.33 349.22 1241.02 354.1 1236.14 359.8"/><line class="cls-6" x1="1225.76" y1="371.89" x2="1147.95" y2="462.62"/><path class="cls-7" d="M1143.57,408.65s47.33,40.73,70.34,106.1"/><circle class="cls-2" cx="1144" cy="408.77" r="7.59"/><path class="cls-2" d="M1271,512.49H1216.1c11.22,30.13,15.48,60.59,12.64,90.57-3.51,37-17.87,74.5-42.68,111.55a3,3,0,1,1-5-3.34c44.74-66.82,54.18-131.66,28.85-198.22a2.91,2.91,0,0,1-.15-.56H858.2a3,3,0,0,1,0,6c-4.55,0-8.49,3.49-9.56,8.49L778.78,849.32c-1.07,5,1,12.63,4.53,17a10.19,10.19,0,0,0,2.77,2.46c194.83-.13,414.48-.3,414.48-.3,6,0,11.12-4.5,12.49-10.86l70.49-327.83C1285.45,521,1279.33,512.49,1271,512.49ZM1049.93,665.25s-14.26,5.71-19-11.13C1030.9,654.12,1048.78,649.78,1049.93,665.25Zm14.26,64.34c-11.29,12-29.88,15.61-41.51,8s-11.91-23.57-.62-35.61A38.71,38.71,0,0,1,1041,691a11.24,11.24,0,0,1-1.54-5.67c0-6.7,5-13.06,11.19-14.19l.33,0c1.61-4.9,4.9-14.14,8.07-17.88a3,3,0,1,1,4.58,3.88c-2.2,2.58-4.94,9.9-6.65,15a10.17,10.17,0,0,1,5,9.13,15,15,0,0,1-4.12,10.11,23.48,23.48,0,0,1,5.74,2.67C1075.22,701.62,1075.49,717.56,1064.19,729.59Z"/><path class="cls-2" d="M1215.53,510.91a3,3,0,0,0-5.76,1.58h6.33C1215.91,512,1215.73,511.44,1215.53,510.91Z"/></g><g id="picture"><rect class="cls-1" x="847" y="316.21" width="112.51" height="112.51" transform="translate(-71.06 299.63) rotate(-18.13)"/><line class="cls-5" x1="867" y1="442.5" x2="939.21" y2="301.49"/><line class="cls-5" x1="832.29" y1="336.51" x2="974.23" y2="408.42"/></g><line id="line-3" data-name="line" class="cls-1" x1="3" y1="869.6" x2="1375.26" y2="869.6"/><polygon class="cls-2" points="674.08 793.09 674.08 793.09 674.08 793.09 674.08 793.09"/><path class="cls-2" d="M675.39,794.43l.21.22Z"/><path class="cls-2" d="M681.9,778.14l-.3-.74-1.2-.88Z"/><path class="cls-2" d="M641,776s21,6.34,32.22,16.23L671,790C662.15,782.46,643.92,776.32,641,776Z"/><path class="cls-2" d="M673.17,792.26l1.53,1.61q-.3-.39-.63-.78C673.78,792.81,673.48,792.54,673.17,792.26Z"/><path class="cls-2" d="M674.07,793.09c.46.44.9.89,1.32,1.34C675,794,674.53,793.53,674.07,793.09Z"/><path class="cls-2" d="M676.79,796.06c-.37-.48-.77-.95-1.19-1.41C676,795.11,676.42,795.58,676.79,796.06Z"/><path class="cls-2" d="M652.23,760.63l27.92,15.62C669.53,764.66,652.23,760.63,652.23,760.63Z"/><path id="neck" class="cls-1" d="M561.17,381.39v46l18.92,3.57c3.26,4.69,40,62.46-40.94,69.51-52.78,4.6-111-26.37-142.29-63.08l51.83-14.15,15.11-95.9"/></g></g></svg>